<?xml version="1.0" encoding="UTF-8"?>
<svg width="24" height="24" version="1.1" viewBox="0 0 24 24" xmlns="http://www.w3.org/2000/svg">
 <path fill="#FFFFFF" d="m12 0a12 12 0 0 0-12 12 12 12 0 0 0 12 12 12 12 0 0 0 12-12 12 12 0 0 0-12-12zm-1 2h2v2.0703c3.62 0.46 6.4697 3.3097 6.9297 6.9297h2.0703v2h-2.0703c-0.46 3.62-3.3097 6.4697-6.9297 6.9297v2.0703h-2v-2.0703c-3.62-0.46-6.4697-3.3097-6.9297-6.9297h-2.0703v-2h2.0703c0.46-3.62 3.3097-6.4697 6.9297-6.9297v-2.0703zm0 4.0801c-2.5 0.42-4.5002 2.4199-4.9102 4.9199h1.9102v2h-1.9199c0.42 2.5 2.4199 4.5002 4.9199 4.9102v-1.9102h2v1.9199c2.5-0.42 4.5002-2.4199 4.9102-4.9199h-1.9102v-2h1.9199c-0.42-2.5-2.4199-4.5002-4.9199-4.9102v1.9102h-2v-1.9199zm1 4.9199a1 1 0 0 1 1 1 1 1 0 0 1-1 1 1 1 0 0 1-1-1 1 1 0 0 1 1-1z"/>
</svg>
